<svg width="104" height="104" viewBox="0 0 104 104" fill="none" xmlns="http://www.w3.org/2000/svg">
<mask id="path-1-outside-1_3323_1060" maskUnits="userSpaceOnUse" x="0" y="-0.47168" width="104" height="104" fill="black">
<rect fill="white" y="-0.47168" width="104" height="104"/>
<path d="M102.385 92.9662H11.0606V1.64211C11.0606 1.02723 10.5617 0.52832 9.94683 0.52832H2.11458C1.49891 0.52832 1 1.02721 1 1.64211V101.913C1 102.529 1.49889 103.028 2.11458 103.028H102.385C103.001 103.028 103.5 102.529 103.5 101.914V94.0811C103.5 93.4654 103.001 92.9673 102.385 92.9673L102.385 92.9662ZM101.27 100.798H3.22867V2.75618H8.83339V94.0803C8.83339 94.6952 9.33229 95.1941 9.94718 95.1941H101.271L101.27 100.798Z"/>
<path d="M29.5326 79.5269C32.306 79.5269 34.562 77.2699 34.562 74.4942C34.562 71.7208 32.3058 69.4648 29.5326 69.4648C26.757 69.4648 24.5 71.7211 24.5 74.4942C24.5 77.2699 26.757 79.5269 29.5326 79.5269ZM29.5326 71.6938C31.077 71.6938 32.3331 72.9498 32.3331 74.4957C32.3331 76.0424 31.0771 77.2999 29.5326 77.2999C27.9859 77.2999 26.7283 76.0416 26.7283 74.4957C26.7276 72.9497 27.9859 71.6938 29.5326 71.6938Z"/>
<path d="M29.5327 87.3593C36.6245 87.3593 42.3944 81.5878 42.3944 74.4935C42.3944 70.8186 40.8508 67.381 38.1323 64.9359L45.0199 49.1683C46.4515 49.1953 47.8988 48.9657 49.2724 48.5041L58.3796 58.942C57.6098 60.6143 57.2047 62.4534 57.2047 64.31C57.2047 71.4042 62.9745 77.1757 70.0663 77.1757C77.1605 77.1757 82.932 71.4042 82.932 64.31C82.932 61.1006 81.761 58.0714 79.6217 55.7L89.9707 26.4348C90.1963 26.4475 90.4164 26.4531 90.6325 26.4531C97.7283 26.4539 103.5 20.6816 103.5 13.5882C103.5 6.49398 97.7283 0.72168 90.6341 0.72168C83.5391 0.72168 77.7667 6.49317 77.7667 13.5874C77.7667 16.6793 78.8678 19.6281 80.8816 21.9653L70.4533 51.4501C68.8748 51.4057 67.2994 51.6448 65.8203 52.1667L56.8085 41.8368C57.6307 40.1145 58.0621 38.2182 58.0621 36.3045C58.0621 29.2103 52.2914 23.4388 45.1996 23.4388C38.1054 23.4388 32.3339 29.2103 32.3339 36.3045C32.3339 39.5585 33.5954 42.7211 35.8191 45.0963L28.5827 61.6695C21.9485 62.1604 16.668 67.7682 16.668 74.4945C16.6672 81.5879 22.4377 87.3593 29.5327 87.3593ZM29.3437 63.8637C29.7798 63.8558 30.1714 63.5952 30.3462 63.1948L38.1634 45.2926C38.3517 44.862 38.2492 44.3583 37.9068 44.0366C35.7501 41.9988 34.5607 39.2519 34.5607 36.3022C34.5607 30.4369 39.3329 25.6648 45.1981 25.6648C51.0625 25.6648 55.8322 30.4369 55.8322 36.3022C55.8322 38.1031 55.3699 39.8842 54.496 41.4548C54.268 41.8663 54.322 42.3747 54.6303 42.729L64.6535 54.2179C64.9704 54.581 65.486 54.6993 65.9301 54.5103C67.5586 53.8167 69.3573 53.5482 71.1098 53.723C71.6214 53.7723 72.0996 53.4688 72.2712 52.9858L83.2032 22.0773C83.3431 21.6809 83.2485 21.2376 82.957 20.9349C81.0456 18.9409 79.9939 16.3312 79.9939 13.5849C79.9939 7.71964 84.7668 2.94751 90.632 2.94751C96.4973 2.94751 101.269 7.71964 101.269 13.5849C101.269 19.4501 96.4973 24.2222 90.632 24.2222C90.2277 24.2222 89.8043 24.196 89.3347 24.1412C88.8064 24.0737 88.3282 24.3859 88.1558 24.8761L77.2945 55.6015C77.1507 56.0066 77.2548 56.4603 77.5599 56.7629C79.5896 58.78 80.7066 61.4596 80.7066 64.309C80.7066 70.1743 75.9345 74.9464 70.0693 74.9464C64.2065 74.9464 59.4352 70.1743 59.4352 64.309C59.4352 62.5589 59.8705 60.8263 60.6927 59.3002C60.9128 58.8911 60.8564 58.389 60.5513 58.0394L50.4486 46.4607C50.1364 46.1016 49.6312 45.9808 49.1911 46.1612C47.657 46.7832 46.0071 47.0231 44.3864 46.9071C43.9161 46.8777 43.4768 47.1391 43.2877 47.5721L35.7597 64.8054C35.5571 65.2701 35.6938 65.8135 36.091 66.1265C38.6815 68.1665 40.168 71.2149 40.168 74.4926C40.168 80.3579 35.3975 85.13 29.5339 85.13C23.6686 85.13 18.8965 80.3579 18.8965 74.4926C18.8949 68.7315 23.5817 63.9632 29.3437 63.8637Z"/>
<path d="M45.1967 41.3379C47.9701 41.3379 50.2261 39.0809 50.2261 36.3053C50.2261 33.5319 47.9699 31.2773 45.1967 31.2773C42.4211 31.2773 40.1641 33.5327 40.1641 36.3053C40.1657 39.0803 42.4225 41.3379 45.1967 41.3379ZM45.1967 33.5041C46.7411 33.5041 47.9986 34.76 47.9986 36.3045C47.9986 37.8512 46.7426 39.1096 45.1967 39.1096C43.65 39.1096 42.3924 37.8512 42.3924 36.3045C42.3932 34.7609 43.6516 33.5041 45.1967 33.5041Z"/>
<path d="M70.0665 69.3436C72.8421 69.3436 75.0991 67.0866 75.0991 64.311C75.0991 61.5353 72.8421 59.2783 70.0665 59.2783C67.2931 59.2783 65.0371 61.5353 65.0371 64.311C65.0371 67.086 67.2933 69.3436 70.0665 69.3436ZM70.0665 61.5067C71.6132 61.5067 72.8708 62.765 72.8708 64.311C72.8708 65.8561 71.6124 67.1153 70.0665 67.1153C68.5221 67.1153 67.2661 65.8569 67.2661 64.311C67.2653 62.765 68.522 61.5067 70.0665 61.5067Z"/>
<path d="M90.6339 18.6219C93.4081 18.6219 95.6657 16.3649 95.6657 13.5893C95.6657 10.8137 93.4087 8.55664 90.6339 8.55664C87.8583 8.55664 85.5996 10.8137 85.5996 13.5893C85.5996 16.3643 87.8581 18.6219 90.6339 18.6219ZM90.6339 10.7842C92.1806 10.7842 93.4382 12.0425 93.4382 13.5885C93.4382 15.1352 92.1806 16.3936 90.6339 16.3936C89.0871 16.3936 87.8288 15.1352 87.8288 13.5885C87.8288 12.0425 89.0871 10.7842 90.6339 10.7842Z"/>
</mask>
<path d="M102.385 92.9662H11.0606V1.64211C11.0606 1.02723 10.5617 0.52832 9.94683 0.52832H2.11458C1.49891 0.52832 1 1.02721 1 1.64211V101.913C1 102.529 1.49889 103.028 2.11458 103.028H102.385C103.001 103.028 103.5 102.529 103.5 101.914V94.0811C103.5 93.4654 103.001 92.9673 102.385 92.9673L102.385 92.9662ZM101.27 100.798H3.22867V2.75618H8.83339V94.0803C8.83339 94.6952 9.33229 95.1941 9.94718 95.1941H101.271L101.27 100.798Z" fill="white"/>
<path d="M29.5326 79.5269C32.306 79.5269 34.562 77.2699 34.562 74.4942C34.562 71.7208 32.3058 69.4648 29.5326 69.4648C26.757 69.4648 24.5 71.7211 24.5 74.4942C24.5 77.2699 26.757 79.5269 29.5326 79.5269ZM29.5326 71.6938C31.077 71.6938 32.3331 72.9498 32.3331 74.4957C32.3331 76.0424 31.0771 77.2999 29.5326 77.2999C27.9859 77.2999 26.7283 76.0416 26.7283 74.4957C26.7276 72.9497 27.9859 71.6938 29.5326 71.6938Z" fill="white"/>
<path d="M29.5327 87.3593C36.6245 87.3593 42.3944 81.5878 42.3944 74.4935C42.3944 70.8186 40.8508 67.381 38.1323 64.9359L45.0199 49.1683C46.4515 49.1953 47.8988 48.9657 49.2724 48.5041L58.3796 58.942C57.6098 60.6143 57.2047 62.4534 57.2047 64.31C57.2047 71.4042 62.9745 77.1757 70.0663 77.1757C77.1605 77.1757 82.932 71.4042 82.932 64.31C82.932 61.1006 81.761 58.0714 79.6217 55.7L89.9707 26.4348C90.1963 26.4475 90.4164 26.4531 90.6325 26.4531C97.7283 26.4539 103.5 20.6816 103.5 13.5882C103.5 6.49398 97.7283 0.72168 90.6341 0.72168C83.5391 0.72168 77.7667 6.49317 77.7667 13.5874C77.7667 16.6793 78.8678 19.6281 80.8816 21.9653L70.4533 51.4501C68.8748 51.4057 67.2994 51.6448 65.8203 52.1667L56.8085 41.8368C57.6307 40.1145 58.0621 38.2182 58.0621 36.3045C58.0621 29.2103 52.2914 23.4388 45.1996 23.4388C38.1054 23.4388 32.3339 29.2103 32.3339 36.3045C32.3339 39.5585 33.5954 42.7211 35.8191 45.0963L28.5827 61.6695C21.9485 62.1604 16.668 67.7682 16.668 74.4945C16.6672 81.5879 22.4377 87.3593 29.5327 87.3593ZM29.3437 63.8637C29.7798 63.8558 30.1714 63.5952 30.3462 63.1948L38.1634 45.2926C38.3517 44.862 38.2492 44.3583 37.9068 44.0366C35.7501 41.9988 34.5607 39.2519 34.5607 36.3022C34.5607 30.4369 39.3329 25.6648 45.1981 25.6648C51.0625 25.6648 55.8322 30.4369 55.8322 36.3022C55.8322 38.1031 55.3699 39.8842 54.496 41.4548C54.268 41.8663 54.322 42.3747 54.6303 42.729L64.6535 54.2179C64.9704 54.581 65.486 54.6993 65.9301 54.5103C67.5586 53.8167 69.3573 53.5482 71.1098 53.723C71.6214 53.7723 72.0996 53.4688 72.2712 52.9858L83.2032 22.0773C83.3431 21.6809 83.2485 21.2376 82.957 20.9349C81.0456 18.9409 79.9939 16.3312 79.9939 13.5849C79.9939 7.71964 84.7668 2.94751 90.632 2.94751C96.4973 2.94751 101.269 7.71964 101.269 13.5849C101.269 19.4501 96.4973 24.2222 90.632 24.2222C90.2277 24.2222 89.8043 24.196 89.3347 24.1412C88.8064 24.0737 88.3282 24.3859 88.1558 24.8761L77.2945 55.6015C77.1507 56.0066 77.2548 56.4603 77.5599 56.7629C79.5896 58.78 80.7066 61.4596 80.7066 64.309C80.7066 70.1743 75.9345 74.9464 70.0693 74.9464C64.2065 74.9464 59.4352 70.1743 59.4352 64.309C59.4352 62.5589 59.8705 60.8263 60.6927 59.3002C60.9128 58.8911 60.8564 58.389 60.5513 58.0394L50.4486 46.4607C50.1364 46.1016 49.6312 45.9808 49.1911 46.1612C47.657 46.7832 46.0071 47.0231 44.3864 46.9071C43.9161 46.8777 43.4768 47.1391 43.2877 47.5721L35.7597 64.8054C35.5571 65.2701 35.6938 65.8135 36.091 66.1265C38.6815 68.1665 40.168 71.2149 40.168 74.4926C40.168 80.3579 35.3975 85.13 29.5339 85.13C23.6686 85.13 18.8965 80.3579 18.8965 74.4926C18.8949 68.7315 23.5817 63.9632 29.3437 63.8637Z" fill="white"/>
<path d="M45.1967 41.3379C47.9701 41.3379 50.2261 39.0809 50.2261 36.3053C50.2261 33.5319 47.9699 31.2773 45.1967 31.2773C42.4211 31.2773 40.1641 33.5327 40.1641 36.3053C40.1657 39.0803 42.4225 41.3379 45.1967 41.3379ZM45.1967 33.5041C46.7411 33.5041 47.9986 34.76 47.9986 36.3045C47.9986 37.8512 46.7426 39.1096 45.1967 39.1096C43.65 39.1096 42.3924 37.8512 42.3924 36.3045C42.3932 34.7609 43.6516 33.5041 45.1967 33.5041Z" fill="white"/>
<path d="M70.0665 69.3436C72.8421 69.3436 75.0991 67.0866 75.0991 64.311C75.0991 61.5353 72.8421 59.2783 70.0665 59.2783C67.2931 59.2783 65.0371 61.5353 65.0371 64.311C65.0371 67.086 67.2933 69.3436 70.0665 69.3436ZM70.0665 61.5067C71.6132 61.5067 72.8708 62.765 72.8708 64.311C72.8708 65.8561 71.6124 67.1153 70.0665 67.1153C68.5221 67.1153 67.2661 65.8569 67.2661 64.311C67.2653 62.765 68.522 61.5067 70.0665 61.5067Z" fill="white"/>
<path d="M90.6339 18.6219C93.4081 18.6219 95.6657 16.3649 95.6657 13.5893C95.6657 10.8137 93.4087 8.55664 90.6339 8.55664C87.8583 8.55664 85.5996 10.8137 85.5996 13.5893C85.5996 16.3643 87.8581 18.6219 90.6339 18.6219ZM90.6339 10.7842C92.1806 10.7842 93.4382 12.0425 93.4382 13.5885C93.4382 15.1352 92.1806 16.3936 90.6339 16.3936C89.0871 16.3936 87.8288 15.1352 87.8288 13.5885C87.8288 12.0425 89.0871 10.7842 90.6339 10.7842Z" fill="white"/>
<path d="M102.385 92.9662H11.0606V1.64211C11.0606 1.02723 10.5617 0.52832 9.94683 0.52832H2.11458C1.49891 0.52832 1 1.02721 1 1.64211V101.913C1 102.529 1.49889 103.028 2.11458 103.028H102.385C103.001 103.028 103.5 102.529 103.5 101.914V94.0811C103.5 93.4654 103.001 92.9673 102.385 92.9673L102.385 92.9662ZM101.27 100.798H3.22867V2.75618H8.83339V94.0803C8.83339 94.6952 9.33229 95.1941 9.94718 95.1941H101.271L101.27 100.798Z" stroke="white" stroke-width="0.4" mask="url(#path-1-outside-1_3323_1060)"/>
<path d="M29.5326 79.5269C32.306 79.5269 34.562 77.2699 34.562 74.4942C34.562 71.7208 32.3058 69.4648 29.5326 69.4648C26.757 69.4648 24.5 71.7211 24.5 74.4942C24.5 77.2699 26.757 79.5269 29.5326 79.5269ZM29.5326 71.6938C31.077 71.6938 32.3331 72.9498 32.3331 74.4957C32.3331 76.0424 31.0771 77.2999 29.5326 77.2999C27.9859 77.2999 26.7283 76.0416 26.7283 74.4957C26.7276 72.9497 27.9859 71.6938 29.5326 71.6938Z" stroke="white" stroke-width="0.4" mask="url(#path-1-outside-1_3323_1060)"/>
<path d="M29.5327 87.3593C36.6245 87.3593 42.3944 81.5878 42.3944 74.4935C42.3944 70.8186 40.8508 67.381 38.1323 64.9359L45.0199 49.1683C46.4515 49.1953 47.8988 48.9657 49.2724 48.5041L58.3796 58.942C57.6098 60.6143 57.2047 62.4534 57.2047 64.31C57.2047 71.4042 62.9745 77.1757 70.0663 77.1757C77.1605 77.1757 82.932 71.4042 82.932 64.31C82.932 61.1006 81.761 58.0714 79.6217 55.7L89.9707 26.4348C90.1963 26.4475 90.4164 26.4531 90.6325 26.4531C97.7283 26.4539 103.5 20.6816 103.5 13.5882C103.5 6.49398 97.7283 0.72168 90.6341 0.72168C83.5391 0.72168 77.7667 6.49317 77.7667 13.5874C77.7667 16.6793 78.8678 19.6281 80.8816 21.9653L70.4533 51.4501C68.8748 51.4057 67.2994 51.6448 65.8203 52.1667L56.8085 41.8368C57.6307 40.1145 58.0621 38.2182 58.0621 36.3045C58.0621 29.2103 52.2914 23.4388 45.1996 23.4388C38.1054 23.4388 32.3339 29.2103 32.3339 36.3045C32.3339 39.5585 33.5954 42.7211 35.8191 45.0963L28.5827 61.6695C21.9485 62.1604 16.668 67.7682 16.668 74.4945C16.6672 81.5879 22.4377 87.3593 29.5327 87.3593ZM29.3437 63.8637C29.7798 63.8558 30.1714 63.5952 30.3462 63.1948L38.1634 45.2926C38.3517 44.862 38.2492 44.3583 37.9068 44.0366C35.7501 41.9988 34.5607 39.2519 34.5607 36.3022C34.5607 30.4369 39.3329 25.6648 45.1981 25.6648C51.0625 25.6648 55.8322 30.4369 55.8322 36.3022C55.8322 38.1031 55.3699 39.8842 54.496 41.4548C54.268 41.8663 54.322 42.3747 54.6303 42.729L64.6535 54.2179C64.9704 54.581 65.486 54.6993 65.9301 54.5103C67.5586 53.8167 69.3573 53.5482 71.1098 53.723C71.6214 53.7723 72.0996 53.4688 72.2712 52.9858L83.2032 22.0773C83.3431 21.6809 83.2485 21.2376 82.957 20.9349C81.0456 18.9409 79.9939 16.3312 79.9939 13.5849C79.9939 7.71964 84.7668 2.94751 90.632 2.94751C96.4973 2.94751 101.269 7.71964 101.269 13.5849C101.269 19.4501 96.4973 24.2222 90.632 24.2222C90.2277 24.2222 89.8043 24.196 89.3347 24.1412C88.8064 24.0737 88.3282 24.3859 88.1558 24.8761L77.2945 55.6015C77.1507 56.0066 77.2548 56.4603 77.5599 56.7629C79.5896 58.78 80.7066 61.4596 80.7066 64.309C80.7066 70.1743 75.9345 74.9464 70.0693 74.9464C64.2065 74.9464 59.4352 70.1743 59.4352 64.309C59.4352 62.5589 59.8705 60.8263 60.6927 59.3002C60.9128 58.8911 60.8564 58.389 60.5513 58.0394L50.4486 46.4607C50.1364 46.1016 49.6312 45.9808 49.1911 46.1612C47.657 46.7832 46.0071 47.0231 44.3864 46.9071C43.9161 46.8777 43.4768 47.1391 43.2877 47.5721L35.7597 64.8054C35.5571 65.2701 35.6938 65.8135 36.091 66.1265C38.6815 68.1665 40.168 71.2149 40.168 74.4926C40.168 80.3579 35.3975 85.13 29.5339 85.13C23.6686 85.13 18.8965 80.3579 18.8965 74.4926C18.8949 68.7315 23.5817 63.9632 29.3437 63.8637Z" stroke="white" stroke-width="0.4" mask="url(#path-1-outside-1_3323_1060)"/>
<path d="M45.1967 41.3379C47.9701 41.3379 50.2261 39.0809 50.2261 36.3053C50.2261 33.5319 47.9699 31.2773 45.1967 31.2773C42.4211 31.2773 40.1641 33.5327 40.1641 36.3053C40.1657 39.0803 42.4225 41.3379 45.1967 41.3379ZM45.1967 33.5041C46.7411 33.5041 47.9986 34.76 47.9986 36.3045C47.9986 37.8512 46.7426 39.1096 45.1967 39.1096C43.65 39.1096 42.3924 37.8512 42.3924 36.3045C42.3932 34.7609 43.6516 33.5041 45.1967 33.5041Z" stroke="white" stroke-width="0.4" mask="url(#path-1-outside-1_3323_1060)"/>
<path d="M70.0665 69.3436C72.8421 69.3436 75.0991 67.0866 75.0991 64.311C75.0991 61.5353 72.8421 59.2783 70.0665 59.2783C67.2931 59.2783 65.0371 61.5353 65.0371 64.311C65.0371 67.086 67.2933 69.3436 70.0665 69.3436ZM70.0665 61.5067C71.6132 61.5067 72.8708 62.765 72.8708 64.311C72.8708 65.8561 71.6124 67.1153 70.0665 67.1153C68.5221 67.1153 67.2661 65.8569 67.2661 64.311C67.2653 62.765 68.522 61.5067 70.0665 61.5067Z" stroke="white" stroke-width="0.4" mask="url(#path-1-outside-1_3323_1060)"/>
<path d="M90.6339 18.6219C93.4081 18.6219 95.6657 16.3649 95.6657 13.5893C95.6657 10.8137 93.4087 8.55664 90.6339 8.55664C87.8583 8.55664 85.5996 10.8137 85.5996 13.5893C85.5996 16.3643 87.8581 18.6219 90.6339 18.6219ZM90.6339 10.7842C92.1806 10.7842 93.4382 12.0425 93.4382 13.5885C93.4382 15.1352 92.1806 16.3936 90.6339 16.3936C89.0871 16.3936 87.8288 15.1352 87.8288 13.5885C87.8288 12.0425 89.0871 10.7842 90.6339 10.7842Z" stroke="white" stroke-width="0.4" mask="url(#path-1-outside-1_3323_1060)"/>
</svg>
