<svg width="104" height="104" viewBox="0 0 104 104" fill="none" xmlns="http://www.w3.org/2000/svg">
<path d="M11.1606 92.8662V1.64211C11.1606 0.972004 10.617 0.42832 9.94683 0.42832H2.11458C1.44373 0.42832 0.9 0.971935 0.9 1.64211V101.913C0.9 102.584 1.44362 103.128 2.11458 103.128H102.385C103.056 103.128 103.6 102.584 103.6 101.914V94.0811C103.6 93.4359 103.097 92.9092 102.462 92.8697L102.461 92.8662H102.385H11.1606ZM101.17 100.698H3.32867V2.85618H8.73339V94.0803C8.73339 94.7504 9.27706 95.2941 9.94718 95.2941H101.171L101.17 100.698Z" fill="white" stroke="white" stroke-width="0.2"/>
<path d="M26.8283 74.4957V74.4956C26.8276 73.0051 28.041 71.7938 29.5326 71.7938C31.0217 71.7938 32.2331 73.005 32.2331 74.4957C32.2331 75.9873 31.0217 77.1999 29.5326 77.1999C28.0411 77.1999 26.8283 75.9864 26.8283 74.4957ZM29.5326 79.6269C32.3613 79.6269 34.662 77.325 34.662 74.4942C34.662 71.6656 32.361 69.3648 29.5326 69.3648C26.7018 69.3648 24.4 71.6658 24.4 74.4942C24.4 77.3251 26.7018 79.6269 29.5326 79.6269Z" fill="white" stroke="white" stroke-width="0.2"/>
<path d="M29.5576 63.9412L29.5757 63.96L29.3457 63.964C23.6382 64.0625 18.9949 68.7861 18.9965 74.4926C18.9965 80.3026 23.7239 85.03 29.5339 85.03C35.3422 85.03 40.068 80.3027 40.068 74.4926C40.068 71.2458 38.5958 68.2263 36.0291 66.2051L36.091 66.1265L36.0291 66.205C35.5961 65.8639 35.4473 65.2718 35.668 64.7654L35.6681 64.7653L43.1961 47.532C43.4024 47.0596 43.8814 46.7754 44.3926 46.8073L44.3935 46.8074C45.9997 46.9223 47.6343 46.6845 49.1535 46.0685L49.1911 46.1612L49.1532 46.0686C49.633 45.872 50.1837 46.0037 50.524 46.3949L29.5576 63.9412ZM29.5576 63.9412C29.9446 63.8654 30.2763 63.605 30.4379 63.2348L38.255 45.3327M29.5576 63.9412L38.255 45.3327M38.255 45.3327C38.4602 44.8634 38.3486 44.3145 37.9753 43.9637C35.8385 41.9447 34.6608 39.2241 34.6608 36.3022C34.6608 30.4922 39.3881 25.7648 45.1981 25.7648C51.0073 25.7648 55.7322 30.4921 55.7322 36.3022C55.7322 38.0861 55.2742 39.8504 54.4086 41.4062L54.4085 41.4063M38.255 45.3327L54.4085 41.4063M54.4085 41.4063C54.1601 41.8546 54.219 42.4087 54.5548 42.7947L54.5549 42.7948M54.4085 41.4063L54.5549 42.7948M54.5549 42.7948L64.5781 54.2837L64.5781 54.2837M54.5549 42.7948L64.5781 54.2837M64.5781 54.2837C64.9236 54.6794 65.4854 54.8083 65.9693 54.6023C67.5822 53.9154 69.3639 53.6494 71.0998 53.8225L71.1002 53.8225M64.5781 54.2837L71.1002 53.8225M71.1002 53.8225C71.6572 53.8762 72.1784 53.5457 72.3654 53.0192L72.3655 53.0191M71.1002 53.8225L72.3655 53.0191M72.3655 53.0191L83.2975 22.1107L83.2975 22.1106M72.3655 53.0191L83.2975 22.1106M83.2975 22.1106C83.4498 21.6789 83.347 21.1959 83.0292 20.8657L83.2975 22.1106ZM29.4099 87.458L29.4096 87.4593H29.5327C36.6798 87.4593 42.4944 81.643 42.4944 74.4935C42.4944 70.8143 40.9589 67.3708 38.2527 64.91L45.0849 49.2693C46.4844 49.288 47.8971 49.0639 49.2408 48.6201L58.2618 58.9591C57.5035 60.6287 57.1047 62.4607 57.1047 64.31C57.1047 71.4594 62.9193 77.2757 70.0663 77.2757C77.2157 77.2757 83.032 71.4594 83.032 64.31C83.032 61.0957 81.8663 58.0604 79.7358 55.6774L90.0401 26.5386C90.2415 26.5487 90.4386 26.5531 90.6325 26.5531C97.7835 26.5539 103.6 20.7368 103.6 13.5882C103.6 6.43876 97.7835 0.62168 90.6341 0.62168C83.4838 0.62168 77.6668 6.43793 77.6668 13.5874C77.6668 16.6839 78.7627 19.6383 80.768 21.9865L70.3832 51.3483C68.84 51.3133 67.3007 51.5473 65.8512 52.05L56.9269 41.8205C57.7372 40.1006 58.1621 38.2112 58.1621 36.3045C58.1621 29.1551 52.3466 23.3388 45.1996 23.3388C38.0502 23.3388 32.2339 29.1551 32.2339 36.3045C32.2339 39.5621 33.4883 42.7284 35.7012 45.1164L28.5151 61.5743C21.8574 62.0985 16.568 67.7358 16.568 74.4945C16.5672 81.6021 22.3161 87.3918 29.4099 87.458ZM60.6267 57.9737L50.5241 46.395L83.029 20.8656C81.1355 18.8901 80.0938 16.3052 80.0938 13.5849C80.0938 7.77487 84.822 3.04751 90.632 3.04751C96.442 3.04751 101.169 7.77486 101.169 13.5849C101.169 19.3949 96.442 24.1222 90.632 24.1222C90.2322 24.1222 89.8129 24.0963 89.347 24.042C88.7703 23.9685 88.2488 24.3101 88.0615 24.8429L77.2003 55.568C77.2003 55.5681 77.2003 55.5681 77.2002 55.5681C77.0435 56.0098 77.157 56.504 77.4894 56.8338C79.5003 58.8322 80.6067 61.4863 80.6067 64.309C80.6067 70.119 75.8793 74.8464 70.0693 74.8464C64.2617 74.8464 59.5352 70.1191 59.5352 64.309C59.5352 62.5753 59.9665 60.859 60.7808 59.3476L60.7808 59.3475C61.0206 58.9018 60.9592 58.3546 60.6267 57.9737Z" fill="white" stroke="white" stroke-width="0.2"/>
<path d="M40.0641 36.3053L40.0641 36.3054C40.0657 39.1355 42.3672 41.4379 45.1967 41.4379C48.0254 41.4379 50.3261 39.1361 50.3261 36.3053C50.3261 33.4767 48.0251 31.1773 45.1967 31.1773C42.3659 31.1773 40.0641 33.4774 40.0641 36.3053ZM45.1967 33.6041C46.6859 33.6041 47.8986 34.8153 47.8986 36.3045C47.8986 37.7961 46.6872 39.0096 45.1967 39.0096C43.7052 39.0096 42.4924 37.7961 42.4924 36.3045C42.4932 34.8163 43.7067 33.6041 45.1967 33.6041Z" fill="white" stroke="white" stroke-width="0.2"/>
<path d="M67.3661 64.311V64.3109C67.3653 62.8201 68.5774 61.6067 70.0665 61.6067C71.558 61.6067 72.7708 62.8202 72.7708 64.311C72.7708 65.8009 71.5572 67.0153 70.0665 67.0153C68.5775 67.0153 67.3661 65.8018 67.3661 64.311ZM70.0665 69.4436C72.8973 69.4436 75.1991 67.1418 75.1991 64.311C75.1991 61.4801 72.8973 59.1783 70.0665 59.1783C67.2378 59.1783 64.9371 61.4802 64.9371 64.311C64.9371 67.1411 67.238 69.4436 70.0665 69.4436Z" fill="white" stroke="white" stroke-width="0.2"/>
<path d="M90.6339 18.7219C93.4633 18.7219 95.7657 16.4201 95.7657 13.5893C95.7657 10.7584 93.4639 8.45664 90.6339 8.45664C87.8031 8.45664 85.4996 10.7584 85.4996 13.5893C85.4996 16.4195 87.8029 18.7219 90.6339 18.7219ZM90.6339 10.8842C92.1254 10.8842 93.3382 12.0977 93.3382 13.5885C93.3382 15.08 92.1253 16.2936 90.6339 16.2936C89.1424 16.2936 87.9288 15.08 87.9288 13.5885C87.9288 12.0978 89.1423 10.8842 90.6339 10.8842Z" fill="white" stroke="white" stroke-width="0.2"/>
</svg>
