<svg width="100" height="55" viewBox="0 0 100 55" fill="none" xmlns="http://www.w3.org/2000/svg">
<path d="M50.4934 45.6152C60.2102 45.6152 68.0869 37.7385 68.0869 28.0217C68.0869 18.305 60.2102 10.4283 50.4934 10.4283C40.7767 10.4283 32.9 18.305 32.9 28.0217C32.9 37.7385 40.7767 45.6152 50.4934 45.6152ZM64.7996 28.0217C64.7996 35.9234 58.3949 42.3279 50.4934 42.3279C42.5918 42.3279 36.1873 35.9232 36.1873 28.0217C36.1873 20.1203 42.592 13.7156 50.4934 13.7156C58.395 13.7156 64.7996 20.1203 64.7996 28.0217Z" fill="white" stroke="white" stroke-width="0.2"/>
<path fill-rule="evenodd" clip-rule="evenodd" d="M0 48.7211C0 52.0483 2.69772 54.7452 6.0241 54.7452H93.9759C97.3031 54.7452 100 52.0483 100 48.7211V6.55242C100 3.22518 97.3031 0.52832 93.9759 0.52832H6.0241C2.69772 0.52832 0 3.22518 0 6.55242V48.7211ZM6.0241 4.14278H16.4763C16.2637 5.11178 15.9654 6.06229 15.5838 6.98249C14.7358 9.0289 13.4937 10.8887 11.9272 12.4554C10.3615 14.0211 8.50163 15.2641 6.45516 16.1112C5.53408 16.4927 4.58356 16.7911 3.61459 17.0037V6.55229C3.61459 5.22107 4.69376 4.14278 6.0241 4.14278ZM96.3855 34.5838V20.6884C94.9409 20.4287 93.5247 20.0144 92.1624 19.4505C89.6773 18.4209 87.4191 16.9124 85.5172 15.0105C83.6153 13.1086 82.1067 10.8504 81.0772 8.36526C80.5133 7.00295 80.099 5.58686 79.8401 4.14215H20.1607C19.9019 5.58682 19.4875 7.00295 18.9228 8.36526C17.8941 10.8504 16.3856 13.1086 14.4828 15.0105C12.581 16.9123 10.3236 18.421 7.83845 19.4505C6.4753 20.0144 5.05919 20.4287 3.61448 20.6884V34.5838C5.05914 34.8427 6.47528 35.257 7.83845 35.8218C10.3236 36.8513 12.5809 38.3598 14.4828 40.2617C16.3855 42.1636 17.894 44.4209 18.9228 46.9061C19.4875 48.2692 19.9019 49.6853 20.1607 51.1301H79.8401C80.099 49.6854 80.5133 48.2693 81.0772 46.9061C82.1068 44.4209 83.6153 42.1636 85.5172 40.2617C87.4191 38.3598 89.6773 36.8512 92.1624 35.8218C93.5247 35.257 94.9408 34.8427 96.3855 34.5838ZM83.5247 51.1299H93.9761C95.3073 51.1299 96.3855 50.0508 96.3855 48.7204V38.2691C95.4165 38.4809 94.466 38.7792 93.5458 39.1607C91.4994 40.0087 89.6396 41.2508 88.0729 42.8174C86.5072 44.3839 85.2642 46.2429 84.4172 48.2894C84.0356 49.2105 83.7373 50.1609 83.5247 51.1299ZM96.3855 6.55156V17.0029C95.4174 16.7903 94.466 16.492 93.5458 16.1104C91.4994 15.2633 89.6396 14.0203 88.0729 12.4547C86.5072 10.8881 85.2642 9.02823 84.4172 6.98176C84.0356 6.06151 83.7373 5.111 83.5247 4.14205H93.976C95.3073 4.14205 96.3855 5.22038 96.3855 6.55156ZM3.61446 38.2684V48.7198C3.61446 49.967 4.56243 50.993 5.77775 51.1167C5.85927 51.1251 5.94163 51.1293 6.02399 51.1293H16.4762C16.2636 50.1604 15.9653 49.2098 15.5837 48.2888C14.7357 46.2424 13.4936 44.3834 11.9271 42.8167C10.3614 41.2502 8.50153 40.008 6.45506 39.1601C5.53397 38.7786 4.58343 38.4802 3.61446 38.2684Z" fill="white"/>
</svg>
