<svg width="90" height="109" viewBox="0 0 90 109" fill="none" xmlns="http://www.w3.org/2000/svg">
<path d="M87.8896 61.4575H77.5276L48.8334 32.1464C51.5935 31.0159 53.7284 28.7438 54.6847 25.9185C55.6402 23.0932 55.3245 19.9917 53.8184 17.4176C52.3114 14.8427 49.763 13.0485 46.8315 12.4978V1.92129C46.8315 0.860298 45.9712 0 44.9102 0C43.8492 0 42.9889 0.860298 42.9889 1.92129V14.2415C42.9769 14.7458 43.169 15.233 43.5207 15.5941C43.8724 15.9561 44.3544 16.161 44.8587 16.1628C46.5733 16.1533 48.2227 16.8258 49.4415 18.0326C50.6612 19.2394 51.3508 20.8811 51.3594 22.5965C51.3594 26.0418 48.8024 28.8243 45.4728 29.0636V29.0628C45.2892 29.0276 45.1014 29.0182 44.9152 29.0353H44.9101C44.7377 29.0182 44.5644 29.025 44.3946 29.0551C42.7838 28.9075 41.2872 28.1656 40.1943 26.9742C39.1016 25.782 38.4926 24.2251 38.4866 22.6084C38.4918 21.5474 37.6358 20.6828 36.5748 20.6777C35.5138 20.6725 34.6492 21.5277 34.644 22.5895C34.6475 24.6257 35.253 26.6157 36.3826 28.3106C37.5123 30.0045 39.117 31.328 40.9955 32.1154L11.9763 61.4573H1.92987C1.42639 61.4401 0.938356 61.6271 0.575529 61.9754C0.211867 62.3236 0.00428173 62.8031 0 63.3065V106.583C0.00171533 107.651 0.86201 108.518 1.92987 108.528H87.8895C88.9573 108.518 89.8176 107.651 89.8193 106.583V63.3065C89.815 62.8031 89.6075 62.3236 89.2438 61.9754C88.881 61.6271 88.3929 61.4402 87.8895 61.4573L87.8896 61.4575ZM44.9032 33.6636L72.1482 61.4575H17.3838L44.9032 33.6636ZM85.9771 104.688H3.84254V65.3001H12.1522C12.3306 65.3001 12.5141 65.379 12.6985 65.379C12.8821 65.379 13.0665 65.3001 13.2449 65.3001H85.9772L85.9771 104.688Z" fill="white"/>
<path d="M50.9135 72.4922C49.8525 72.4922 48.9922 73.3525 48.9922 74.4135V95.4783C48.9922 96.5401 49.8525 97.3996 50.9135 97.3996C51.9745 97.3996 52.8348 96.5401 52.8348 95.4783V74.4135C52.8348 73.904 52.6323 73.4151 52.2721 73.0549C51.9119 72.6946 51.423 72.4922 50.9135 72.4922Z" fill="white"/>
<path d="M38.9057 72.4922C37.8447 72.4922 36.9844 73.3525 36.9844 74.4135V95.4783C36.9844 96.5401 37.8447 97.3996 38.9057 97.3996C39.9667 97.3996 40.827 96.5401 40.827 95.4783V74.4135C40.827 73.904 40.6245 73.4151 40.2643 73.0549C39.904 72.6946 39.4151 72.4922 38.9057 72.4922Z" fill="white"/>
<path d="M62.683 72.4922C61.622 72.4922 60.7617 73.3525 60.7617 74.4135V95.4783C60.7617 96.5401 61.622 97.3996 62.683 97.3996C63.744 97.3996 64.6043 96.5401 64.6043 95.4783V74.4135C64.6043 73.904 64.4019 73.4151 64.0416 73.0549C63.6814 72.6946 63.1925 72.4922 62.683 72.4922Z" fill="white"/>
<path d="M74.6889 72.4922C73.6279 72.4922 72.7676 73.3525 72.7676 74.4135V95.4783C72.7676 96.5401 73.6279 97.3996 74.6889 97.3996C75.7499 97.3996 76.6102 96.5401 76.6102 95.4783V74.4135C76.6102 73.904 76.4077 73.4151 76.0475 73.0549C75.6873 72.6946 75.1983 72.4922 74.6889 72.4922Z" fill="white"/>
<path d="M27.1381 72.4922C26.0771 72.4922 25.2168 73.3525 25.2168 74.4135V95.4783C25.2168 96.5401 26.0771 97.3996 27.1381 97.3996C28.1991 97.3996 29.0594 96.5401 29.0594 95.4783V74.4135C29.0594 73.904 28.857 73.4151 28.4967 73.0549C28.1365 72.6946 27.6476 72.4922 27.1381 72.4922Z" fill="white"/>
<path d="M15.1303 72.4922C14.0693 72.4922 13.209 73.3525 13.209 74.4135V95.4783C13.209 96.5401 14.0693 97.3996 15.1303 97.3996C16.1913 97.3996 17.0516 96.5401 17.0516 95.4783V74.4135C17.0516 73.904 16.8491 73.4151 16.4889 73.0549C16.1287 72.6946 15.6398 72.4922 15.1303 72.4922Z" fill="white"/>
</svg>
