<svg width="100" height="100" viewBox="0 0 100 100" fill="none" xmlns="http://www.w3.org/2000/svg">
<path d="M91.8261 99.9683C89.7926 99.9683 87.8806 99.1767 86.4422 97.7383L57.4005 68.6987C56.9893 68.2875 56.7787 67.7165 56.8245 67.1364C56.8703 66.5562 57.1675 66.0251 57.6378 65.683C60.5262 63.5846 63.0549 61.0558 65.1534 58.1674C65.4955 57.6971 66.0265 57.3991 66.6067 57.3542C67.186 57.3068 67.757 57.519 68.169 57.9302L97.2108 86.9719C98.6483 88.4103 99.4407 90.3223 99.4407 92.3558C99.4407 94.3893 98.6492 96.3013 97.2108 97.7397C95.7716 99.178 93.8595 99.9696 91.826 99.9696L91.8261 99.9683ZM61.8106 67.4809L89.2542 94.9245C89.9409 95.6112 90.854 95.9891 91.8253 95.9891C92.7967 95.9891 93.7098 95.6112 94.3964 94.9245C95.0831 94.2378 95.461 93.3247 95.461 92.3534C95.461 91.382 95.0831 90.4689 94.3964 89.7822L66.9528 62.3387C65.4063 64.2149 63.6866 65.9345 61.8104 67.4811L61.8106 67.4809Z" fill="white"/>
<path d="M37.7868 76.102C16.9509 76.102 0 59.1507 0 38.3152C0 17.4797 16.9513 0.52832 37.7868 0.52832C58.6223 0.52832 75.5737 17.4797 75.5737 38.3152C75.5737 59.1507 58.6223 76.102 37.7868 76.102ZM37.7868 4.50454C19.1442 4.50454 3.97622 19.6721 3.97622 38.3152C3.97622 56.9582 19.1438 72.1258 37.7868 72.1258C56.4299 72.1258 71.5975 56.9582 71.5975 38.3152C71.5975 19.6721 56.4299 4.50454 37.7868 4.50454Z" fill="white"/>
<path d="M37.7875 64.1688C23.5315 64.1688 11.9336 52.5704 11.9336 38.3149C11.9336 24.0593 23.532 12.4609 37.7875 12.4609C52.0431 12.4609 63.6414 24.0593 63.6414 38.3149C63.6414 52.5704 52.0431 64.1688 37.7875 64.1688ZM37.7875 16.4372C25.7248 16.4372 15.9098 26.2509 15.9098 38.3149C15.9098 50.3775 25.7236 60.1926 37.7875 60.1926C49.8502 60.1926 59.6652 50.3788 59.6652 38.3149C59.6652 26.2522 49.8506 16.4372 37.7875 16.4372Z" fill="white"/>
</svg>
