<svg width="111" height="102" viewBox="0 0 111 102" fill="none" xmlns="http://www.w3.org/2000/svg">
<path d="M26.1121 51.4467C26.1121 44.2355 20.2672 38.3906 13.056 38.3906C5.8477 38.3906 0 44.2355 0 51.4467C0 58.6559 5.8477 64.5027 13.056 64.5027C20.2672 64.5027 26.1121 58.6559 26.1121 51.4467ZM13.056 60.5856C8.01804 60.5856 3.91704 56.4847 3.91704 51.4467C3.91704 46.4087 8.01804 42.3077 13.056 42.3077C18.094 42.3077 22.195 46.4087 22.195 51.4467C22.195 56.4847 18.094 60.5856 13.056 60.5856Z" fill="white"/>
<path d="M75.724 26.6404C82.9351 26.6404 88.78 20.7936 88.78 13.5844C88.78 6.37323 82.9351 0.52832 75.724 0.52832C68.5129 0.52832 62.668 6.37323 62.668 13.5844C62.668 20.7945 68.5129 26.6404 75.724 26.6404ZM75.724 4.44536C80.762 4.44536 84.863 8.54636 84.863 13.5844C84.863 18.6224 80.762 22.7233 75.724 22.7233C70.686 22.7233 66.585 18.6224 66.585 13.5844C66.585 8.54636 70.686 4.44536 75.724 4.44536Z" fill="white"/>
<path d="M77.0306 73.6426C69.8223 73.6426 63.9746 79.4875 63.9746 86.6986C63.9746 93.9079 69.8223 99.7546 77.0306 99.7546C84.2418 99.7546 90.0867 93.9079 90.0867 86.6986C90.0867 79.4875 84.2408 73.6426 77.0306 73.6426ZM77.0306 95.8376C71.9926 95.8376 67.8917 91.7366 67.8917 86.6986C67.8917 81.6606 71.9926 77.5596 77.0306 77.5596C82.0686 77.5596 86.1696 81.6606 86.1696 86.6986C86.1696 91.7366 82.0686 95.8376 77.0306 95.8376Z" fill="white"/>
<path d="M97.9202 37.0853C91.3768 37.0853 85.9744 41.9039 85.0271 48.1834H71.685C70.7142 39.7329 63.546 33.1685 54.835 33.1685C51.9408 33.1685 49.2167 33.8971 46.8326 35.1739L40.241 24.1861C43.5395 21.8164 45.6961 17.9558 45.6961 13.5844C45.6961 6.37509 39.8511 0.52832 32.64 0.52832C25.4317 0.52832 19.584 6.37509 19.584 13.5844C19.584 20.7927 25.4317 26.6404 32.64 26.6404C34.0762 26.6404 35.4522 26.4 36.7464 25.9719L43.6187 37.426C40.0962 40.5371 37.8629 45.0734 37.8629 50.1414C37.8629 55.8597 40.6988 60.9052 45.033 63.9806L38.0506 75.6159C36.7583 75.1878 35.3822 74.9474 33.9461 74.9474C26.7378 74.9474 20.8901 80.7942 20.8901 88.0034C20.8901 95.2117 26.7378 101.059 33.9461 101.059C41.1572 101.059 47.0021 95.2117 47.0021 88.0034C47.0021 83.631 44.8455 79.7707 41.547 77.4017L48.4686 65.8664C50.4348 66.6651 52.5815 67.1141 54.8355 67.1141C63.5464 67.1141 70.7137 60.5497 71.6855 52.1002H85.0276C85.9747 58.3787 91.377 63.1973 97.9206 63.1973C105.132 63.1973 110.977 57.3496 110.977 50.1413C110.977 42.932 105.132 37.0853 97.9206 37.0853L97.9202 37.0853ZM23.5008 13.5844C23.5008 8.54645 27.6018 4.44546 32.6398 4.44546C37.6778 4.44546 41.7788 8.54645 41.7788 13.5844C41.7788 18.6224 37.6778 22.7234 32.6398 22.7234C27.6018 22.7234 23.5008 18.6224 23.5008 13.5844ZM33.9459 97.1431C28.9079 97.1431 24.8069 93.0421 24.8069 88.0041C24.8069 82.9661 28.9079 78.8651 33.9459 78.8651C38.9838 78.8651 43.0848 82.9661 43.0848 88.0041C43.0848 93.0421 38.9838 97.1431 33.9459 97.1431ZM54.835 63.1974C47.6358 63.1974 41.779 57.3406 41.779 50.1413C41.779 42.9421 47.6358 37.0853 54.835 37.0853C62.0343 37.0853 67.8911 42.9421 67.8911 50.1413C67.8911 57.3406 62.0343 63.1974 54.835 63.1974ZM97.9199 59.2803C92.8819 59.2803 88.7809 55.1793 88.7809 50.1413C88.7809 45.1033 92.8819 41.0023 97.9199 41.0023C102.958 41.0023 107.059 45.1033 107.059 50.1413C107.059 55.1793 102.958 59.2803 97.9199 59.2803Z" fill="white"/>
</svg>
