<svg width="103" height="103" viewBox="0 0 103 103" fill="none" xmlns="http://www.w3.org/2000/svg">
<path d="M84.4602 12.9182H90.8362C91.7285 12.9182 92.452 12.1959 92.452 11.3024C92.452 10.4102 91.7297 9.68668 90.8362 9.68668H80.2666C72.0672 3.99764 62.1236 0.65 51.4076 0.65C23.4187 0.65 0.65 23.4187 0.65 51.4076C0.65 66.4807 7.26304 80.0295 17.728 89.3334H11.1823C10.2901 89.3334 9.56656 90.0557 9.56656 90.9491C9.56656 91.8413 10.2889 92.5649 11.1823 92.5649H21.7517C30.1009 98.5966 40.3431 102.166 51.4074 102.166C79.3963 102.166 102.165 79.3968 102.165 51.4079C102.165 36.0323 95.2923 22.233 84.4602 12.9182ZM81.4726 14.6419C92.1217 23.366 98.9352 36.6031 98.9352 51.4084C98.9352 77.6165 77.6149 98.9352 51.4083 98.9352H51.326L51.3252 98.9356C41.0571 98.9181 31.5501 95.6187 23.7788 90.0442V79.9704C23.7788 79.0782 23.0565 78.3547 22.163 78.3547C21.2708 78.3547 20.5473 79.077 20.5473 79.9704V87.5239C10.353 78.7989 3.88096 65.846 3.88096 51.4084C3.88096 25.2003 25.2013 3.8815 51.4078 3.8815C61.359 3.8815 70.599 6.96247 78.2411 12.211V22.2839C78.2411 23.1761 78.9634 23.8996 79.8568 23.8996C80.7491 23.8996 81.4726 23.1773 81.4726 22.2839V14.6419Z" fill="white" stroke="white" stroke-width="0.7"/>
<path d="M50.8584 16.0914L50.8591 16.0952C31.447 16.3221 15.7262 32.183 15.7262 51.6476C15.7262 71.2515 31.6747 87.2003 51.2788 87.2003H51.2797C66.4357 87.2003 79.399 77.6641 84.5061 64.2821C84.6664 64.0557 84.7869 63.7813 84.8069 63.464C86.1151 59.7643 86.8335 55.7881 86.8335 51.6463C86.8344 32.0415 70.885 16.0914 51.2808 16.0914H50.8584ZM65.9493 41.0626C66.7773 44.248 67.2948 47.7432 67.305 51.5343V51.6478C67.305 55.2823 66.7449 58.6515 65.8464 61.7531H52.8956V41.0626H65.9493ZM35.2563 51.6476C35.2563 47.813 35.7775 44.2798 36.6155 41.0624H49.6648V61.7529H36.6957C35.8024 58.6552 35.2563 55.2793 35.2563 51.6476H35.2563ZM52.8962 37.8328V19.378C52.913 19.3923 52.9347 19.4109 52.9611 19.4338C53.0265 19.4905 53.1207 19.5735 53.2405 19.6821C53.4802 19.8995 53.8226 20.2198 54.2436 20.6399C55.0859 21.4803 56.2423 22.7196 57.5215 24.333C60.0147 27.4778 62.9697 32.0389 64.9745 37.8336L52.8962 37.8328ZM34.1519 37.8328H22.0716C26.3089 28.9089 34.5134 22.2265 44.3937 20.0731C41.3013 23.4741 36.7867 29.4939 34.1519 37.8328ZM18.9566 51.649V51.6489C18.9558 47.9424 19.5887 44.3821 20.7427 41.0635H33.2564C32.4906 44.2978 32.0254 47.829 32.0254 51.649C32.0254 55.2716 32.5165 58.6414 33.3262 61.7542H20.5842C19.5334 58.5724 18.9566 55.1777 18.9566 51.649ZM68.4156 37.8319C65.79 29.5001 61.2922 23.4831 58.2087 20.0812C68.0699 22.2437 76.2572 28.92 80.4895 37.8319H68.4156ZM49.6656 19.4119V37.8319H37.5938C39.604 32.0383 42.5668 27.4779 45.0667 24.3335C46.3493 22.7202 47.5089 21.481 48.3535 20.6406C48.7757 20.2204 49.1191 19.9001 49.3595 19.6827C49.4797 19.574 49.5741 19.491 49.6397 19.4342C49.649 19.4262 49.6576 19.4188 49.6656 19.4119ZM49.6656 64.9839V82.1138C46.4498 79.1511 40.9871 73.2453 37.7904 64.9839H49.6656ZM64.7569 64.9839C61.5621 73.2253 56.1107 79.141 52.8962 82.1106V64.9839H64.7569ZM34.3001 64.9839C37.3512 73.719 42.8065 80.0602 46.4989 83.6096C35.5037 81.9725 26.2997 74.7803 21.8434 64.9839H34.3001ZM68.2596 64.9839H80.7141C76.258 74.7802 67.0549 81.9724 56.0607 83.6096C59.7531 80.0596 65.2087 73.7191 68.2596 64.9839ZM83.6024 51.6481C83.6024 55.1768 83.0256 58.5713 81.9748 61.7533H69.2346C70.0443 58.6407 70.5354 55.2707 70.5354 51.6481C70.5354 47.8291 70.0711 44.297 69.3068 41.0626H81.8165C82.9704 44.3811 83.6024 47.9415 83.6024 51.6481Z" fill="white" stroke="white" stroke-width="0.7"/>
</svg>
