<svg width="157" height="26" viewBox="0 0 157 26" fill="none" xmlns="http://www.w3.org/2000/svg">
<path d="M34.4121 24.7076V19.6973L49.6886 4.61733V4.07701H34.9033V0.687688H53.7656V5.69799L38.44 20.778V21.3674H54.1586V24.7076H34.4121Z" fill="white"/>
<path d="M66.9767 25.3953C64.5535 25.3953 62.4249 24.8878 60.5911 23.8726C58.7572 22.8247 57.3327 21.3675 56.3176 19.5009C55.3024 17.6343 54.7948 15.473 54.7948 13.017V12.4275C54.7948 9.93873 55.3024 7.76105 56.3176 5.89447C57.3327 4.02789 58.7409 2.58702 60.542 1.57186C62.343 0.523953 64.4061 0 66.7311 0C68.9907 0 70.9883 0.491206 72.7239 1.47362C74.4594 2.42328 75.8185 3.79866 76.8009 5.59974C77.7833 7.40083 78.2745 9.51302 78.2745 11.9363V13.7046H58.6754C58.7736 16.2917 59.6087 18.322 61.1805 19.7956C62.7524 21.2365 64.7172 21.9569 67.075 21.9569C69.1381 21.9569 70.7263 21.4821 71.8397 20.5324C72.9531 19.5827 73.8045 18.453 74.394 17.1431L77.7341 18.7641C77.2429 19.7792 76.5553 20.7944 75.6711 21.8095C74.8197 22.8247 73.6899 23.6761 72.2818 24.3638C70.9064 25.0515 69.1381 25.3953 66.9767 25.3953ZM58.7245 10.5118H74.3448C74.2138 8.285 73.4443 6.54941 72.0362 5.30502C70.6608 4.06063 68.8924 3.43844 66.7311 3.43844C64.5371 3.43844 62.736 4.06063 61.3279 5.30502C59.9198 6.54941 59.052 8.285 58.7245 10.5118Z" fill="white"/>
<path d="M80.8679 24.7076V0.687688H84.6502V4.7647H85.3379C85.8618 3.61855 86.746 2.58702 87.9904 1.6701C89.2675 0.720435 91.1341 0.245603 93.5901 0.245603C95.3912 0.245603 96.9958 0.622194 98.4039 1.37538C99.8448 2.12856 100.991 3.24196 101.842 4.71558C102.694 6.18919 103.12 8.00665 103.12 10.168V24.7076H99.239V10.4627C99.239 8.07215 98.6332 6.33655 97.4215 5.2559C96.2426 4.17525 94.638 3.63492 92.6077 3.63492C90.2827 3.63492 88.3833 4.3881 86.9097 5.89447C85.4688 7.40083 84.7484 9.64401 84.7484 12.624V24.7076H80.8679Z" fill="white"/>
<path d="M106.817 24.7076V0.687688H110.6V4.7647H111.287C111.811 3.61855 112.695 2.58702 113.94 1.6701C115.217 0.720435 117.084 0.245603 119.54 0.245603C121.341 0.245603 122.945 0.622194 124.353 1.37538C125.794 2.12856 126.94 3.24196 127.792 4.71558C128.643 6.18919 129.069 8.00665 129.069 10.168V24.7076H125.188V10.4627C125.188 8.07215 124.583 6.33655 123.371 5.2559C122.192 4.17525 120.588 3.63492 118.557 3.63492C116.232 3.63492 114.333 4.3881 112.859 5.89447C111.418 7.40083 110.698 9.64401 110.698 12.624V24.7076H106.817Z" fill="white"/>
<path d="M143.868 25.3953C141.445 25.3953 139.3 24.8878 137.433 23.8726C135.599 22.8574 134.159 21.4329 133.111 19.5991C132.096 17.7325 131.588 15.5385 131.588 13.017V12.3784C131.588 9.88961 132.096 7.71193 133.111 5.84535C134.159 3.97877 135.599 2.5379 137.433 1.52274C139.3 0.507579 141.445 0 143.868 0C146.291 0 148.42 0.507579 150.254 1.52274C152.12 2.5379 153.561 3.97877 154.576 5.84535C155.624 7.71193 156.148 9.88961 156.148 12.3784V13.017C156.148 15.5385 155.624 17.7325 154.576 19.5991C153.561 21.4329 152.12 22.8574 150.254 23.8726C148.42 24.8878 146.291 25.3953 143.868 25.3953ZM143.868 21.9078C146.422 21.9078 148.453 21.1055 149.959 19.5009C151.498 17.8635 152.268 15.6695 152.268 12.9187V12.4766C152.268 9.72587 151.498 7.54819 149.959 5.94359C148.453 4.30624 146.422 3.48756 143.868 3.48756C141.347 3.48756 139.316 4.30624 137.777 5.94359C136.238 7.54819 135.468 9.72587 135.468 12.4766V12.9187C135.468 15.6695 136.238 17.8635 137.777 19.5009C139.316 21.1055 141.347 21.9078 143.868 21.9078Z" fill="white"/>
<path d="M14.7596 0.697267L23.9143 0.697266V1.81825L9.06129 24.6321H5.66093e-06L0 23.3972L14.7596 0.697267Z" fill="white"/>
<path d="M23.9684 24.5486H14.0664L23.9684 9.22852V24.5486Z" fill="white"/>
<path d="M0.0550137 0.739469H9.95703L0.0550137 16.0596V0.739469Z" fill="white"/>
</svg>
